# xmcd CD database file
#
# Track frame offsets:
#	150
#	17723
#	41974
#	62726
#	88926
#	116694
#	150463
#	171932
#	196700
#	217637
#	236407
#	260675
#	290595
#
# Disc length: 4210 seconds
#
# Revision: 0
# Processed by: cddbd v1.5.2PL0 Copyright (c) Steve Scherf et al.
# Submitted via: CDex 1.50
#
DISCID=b310700d
DTITLE=Various Artist - Cafe Del Mar Vol 12 CD 1
DYEAR=2005
DGENRE=New Age
TTITLE0=SLAVEN KOLAK - ALL SHADES OF BLUE
TTITLE1=ELCHO - LAZY SUMMER DAYS
TTITLE2=ALESSANDRO BOSCHI - EMPURIABRAVA
TTITLE3=NEW BEGINNING - ANOTHER DAY
TTITLE4=MELIBEA - ANTOLOGIA CAFE DEL MAR
TTITLE5=ARNICA MONTANA - SEA, SAND and SUN
TTITLE6=ALEJANDRO DE PINEDO - AQUARIUS
TTITLE7=RAFA GAS and F3R DELGADO ft. RAUL MENDOZA - QUIEREME OTRA VEZ
TTITLE8=ANDRE ANDREO - SOUTH BEACH SOUL
TTITLE9=CHRIS LE BLANC ft. LIZ JUNE - ENJOY YOUR LIFE
TTITLE10=JO MANJI - LAZY LOUNGIN
TTITLE11=STEEN THOTTRUP ft. ANNETTE BERG - SAVE A LITTLE PRAYER
TTITLE12=LA CAINA - BAILANDO VA
EXTD=YEAR: 2005
EXTT0=
EXTT1=
EXTT2=
EXTT3=
EXTT4=
EXTT5=
EXTT6=
EXTT7=
EXTT8=
EXTT9=
EXTT10=
EXTT11=
EXTT12=
PLAYORDER=
